<svg xmlns="http://www.w3.org/2000/svg" xmlns:xlink="http://www.w3.org/1999/xlink" width="28.325" height="40" viewBox="0 0 28.325 40">
  <defs>
    <clipPath id="clip-path">
      <rect id="Rectangle_123" data-name="Rectangle 123" width="28.325" height="40" transform="translate(6.563 197)" fill="#348437" stroke="#666" stroke-width="2"/>
    </clipPath>
  </defs>
  <g id="Enmascarar_grupo_4" data-name="Enmascarar grupo 4" transform="translate(-6.563 -197)" clip-path="url(#clip-path)">
    <g id="Layer_2" data-name="Layer 2" transform="translate(6.563 202.838)">
      <g id="invisible_box" data-name="invisible box">
        <rect id="Rectángulo_13" data-name="Rectángulo 13" width="28.325" height="28.325" fill="none"/>
      </g>
      <g id="icons_Q2" data-name="icons Q2">
        <g id="Grupo_14" data-name="Grupo 14">
          <path id="Trazado_488" data-name="Trazado 488" d="M23.722,17.231l3.246-.885a13.572,13.572,0,0,0,0-4.367l-3.246-.885a1.062,1.062,0,0,1-.649-1.534l1.652-2.95A12.156,12.156,0,0,0,21.716,3.6l-2.95,1.652-.472.118A1.062,1.062,0,0,1,17.231,4.6l-.885-3.246a13.572,13.572,0,0,0-4.367,0L11.094,4.6a1.062,1.062,0,0,1-1.062.767L9.56,5.252,6.609,3.6A12.156,12.156,0,0,0,3.6,6.609L5.252,9.56A1.062,1.062,0,0,1,4.6,11.094l-3.246.885a13.572,13.572,0,0,0,0,4.367l3.246.885a1.062,1.062,0,0,1,.649,1.534L3.6,21.716a12.156,12.156,0,0,0,3.01,3.01l2.95-1.652.472-.118a1.062,1.062,0,0,1,1.062.767l.885,3.246a13.572,13.572,0,0,0,4.367,0l.885-3.246a1.062,1.062,0,0,1,1.062-.767l.472.118,2.95,1.652a12.156,12.156,0,0,0,3.01-3.01l-1.652-2.95a1.062,1.062,0,0,1,.649-1.534Zm-.708-2.3H22.9a3.6,3.6,0,0,0-2.006,1.947,3.364,3.364,0,0,0,.059,2.832h.059v.118l.885,1.475a1.77,1.77,0,0,1-.472.472l-1.475-.885h-.177a3.186,3.186,0,0,0-1.475-.354,3.541,3.541,0,0,0-3.3,2.3v.177h0l-.531,1.77h-.59L13.4,23.073h0v-.118a3.541,3.541,0,0,0-3.364-2.36,3.187,3.187,0,0,0-1.475.354H8.379L6.9,21.834a1.77,1.77,0,0,1-.472-.472l.885-1.475v-.118h.059a3.364,3.364,0,0,0,.059-2.832,3.6,3.6,0,0,0-2.006-1.947H5.252l-1.711-.531v-.59L5.252,13.4h.177a3.6,3.6,0,0,0,2.006-1.947,3.364,3.364,0,0,0-.059-2.832H7.317V8.5L6.432,7.022,6.9,6.55l1.475.885h.177a3.187,3.187,0,0,0,1.475.354,3.541,3.541,0,0,0,3.3-2.3V5.311h0l.531-1.77h.59l.472,1.711h0V5.37a3.541,3.541,0,0,0,3.364,2.36,3.187,3.187,0,0,0,1.475-.354h.177l1.475-.885a1.77,1.77,0,0,1,.472.472l-.885,1.475v.118h-.059a3.364,3.364,0,0,0-.059,2.832A3.6,3.6,0,0,0,22.9,13.336h.177l1.711.472v.59l-1.711.472Z" fill="#348437"/>
          <path id="Trazado_489" data-name="Trazado 489" d="M14.162,8.851a5.311,5.311,0,1,0,5.311,5.311A5.311,5.311,0,0,0,14.162,8.851Zm0,8.261a2.95,2.95,0,1,1,2.95-2.95A2.95,2.95,0,0,1,14.162,17.113Z" fill="#348437"/>
        </g>
      </g>
    </g>
  </g>
</svg>
