<svg xmlns="http://www.w3.org/2000/svg" xmlns:xlink="http://www.w3.org/1999/xlink" width="28.325" height="40" viewBox="0 0 28.325 40">
  <defs>
    <clipPath id="clip-path">
      <rect id="Rectangle_123" data-name="Rectangle 123" width="28.325" height="40" transform="translate(6.563 149)" fill="#348437" stroke="#666" stroke-width="2"/>
    </clipPath>
  </defs>
  <g id="Enmascarar_grupo_5" data-name="Enmascarar grupo 5" transform="translate(-6.563 -149)" clip-path="url(#clip-path)">
    <g id="Layer_2" data-name="Layer 2" transform="translate(6.563 154.838)">
      <g id="invisible_box" data-name="invisible box">
        <rect id="Rectángulo_14" data-name="Rectángulo 14" width="28.325" height="28.325" fill="none"/>
      </g>
      <g id="icons_Q2" data-name="icons Q2">
        <path id="Trazado_490" data-name="Trazado 490" d="M14.162,1.18S3.541,4.19,3.541,4.721v10.74c0,5.429,7.848,10.209,10.032,11.507a1.062,1.062,0,0,0,1.18,0c2.242-1.239,10.032-6.078,10.032-11.507V4.721C24.784,4.19,14.162,1.18,14.162,1.18Zm0,23.368a31.865,31.865,0,0,1-4.957-3.6,14.93,14.93,0,0,1,4.957-.885,14.634,14.634,0,0,1,4.957.885A26.377,26.377,0,0,1,14.162,24.548Zm8.261-9.088a6.429,6.429,0,0,1-1.534,3.6A18.234,18.234,0,0,0,14.162,17.7,17.7,17.7,0,0,0,7.494,19.06a6.181,6.181,0,0,1-1.593-3.6V6.2c1.711-.649,5.134-1.652,8.261-2.537,3.128.885,6.55,1.947,8.261,2.537Z" fill="#348437"/>
        <path id="Trazado_491" data-name="Trazado 491" d="M14.162,8.261a2.36,2.36,0,1,1-2.36,2.36,2.36,2.36,0,0,1,2.36-2.36m0-2.36a4.721,4.721,0,1,0,4.721,4.721A4.721,4.721,0,0,0,14.162,5.9Z" fill="#348437"/>
      </g>
    </g>
  </g>
</svg>
