<svg xmlns="http://www.w3.org/2000/svg" xmlns:xlink="http://www.w3.org/1999/xlink" width="28.325" height="40" viewBox="0 0 28.325 40">
  <defs>
    <clipPath id="clip-path">
      <rect id="Rectangle_123" data-name="Rectangle 123" width="28.325" height="40" transform="translate(6.563 245)" fill="#348437" stroke="#666" stroke-width="2"/>
    </clipPath>
  </defs>
  <g id="Enmascarar_grupo_6" data-name="Enmascarar grupo 6" transform="translate(-6.563 -245)" clip-path="url(#clip-path)">
    <g id="Layer_2" data-name="Layer 2" transform="translate(6.563 250.838)">
      <g id="invisible_box" data-name="invisible box">
        <rect id="Rectángulo_15" data-name="Rectángulo 15" width="28.325" height="28.325" fill="none"/>
      </g>
      <g id="icons_Q2" data-name="icons Q2">
        <g id="Grupo_15" data-name="Grupo 15">
          <path id="Trazado_492" data-name="Trazado 492" d="M4.131,20.063h7.081a1.18,1.18,0,0,0,0-2.36h-5.9V5.9h17.7V17.7h-5.9a1.18,1.18,0,0,0,0,2.36h7.081a1.18,1.18,0,0,0,1.18-1.18V4.721a1.18,1.18,0,0,0-1.18-1.18H4.131a1.18,1.18,0,0,0-1.18,1.18V18.883A1.18,1.18,0,0,0,4.131,20.063Z" fill="#348437"/>
          <path id="Trazado_493" data-name="Trazado 493" d="M25.964,22.424H2.36a1.18,1.18,0,1,0,0,2.36h23.6a1.18,1.18,0,1,0,0-2.36Z" fill="#348437"/>
          <path id="Trazado_494" data-name="Trazado 494" d="M18.824,12.569a3.364,3.364,0,0,0,.059-.767,3.364,3.364,0,0,0-.059-.767l-1.3-.3a2.479,2.479,0,0,0-.236-.59L18,9.029a4.544,4.544,0,0,0-1.062-1.062l-1.121.708-.59-.236-.3-1.3H13.4l-.3,1.3-.59.236-1.121-.708a4.544,4.544,0,0,0-1.062,1.062l.708,1.121a2.478,2.478,0,0,0-.236.59l-1.3.3a3.363,3.363,0,0,0-.059.767,3.364,3.364,0,0,0,.059.767l1.3.3a2.478,2.478,0,0,0,.236.59l-.708,1.121a4.544,4.544,0,0,0,1.062,1.062l1.121-.708.59.236.3,1.3h1.534l.3-1.3.59-.236,1.121.708A4.544,4.544,0,0,0,18,14.575l-.708-1.121a2.478,2.478,0,0,0,.236-.59Zm-4.662.413a1.18,1.18,0,1,1,1.18-1.18A1.18,1.18,0,0,1,14.162,12.982Z" fill="#348437"/>
        </g>
      </g>
    </g>
  </g>
</svg>
